<svg xmlns="http://www.w3.org/2000/svg" width="1280" height="640" viewBox="0 0 1280 640" role="img" aria-labelledby="title desc">
  <title id="title">Kubernetes GitOps Delivery</title><desc id="desc">Portfolio social preview for a GitLab CI to OCI to Argo CD to Kubernetes delivery lab.</desc>
  <defs><linearGradient id="bg" x1="0" y1="0" x2="1" y2="1"><stop stop-color="#071426"/><stop offset="1" stop-color="#082b2d"/></linearGradient><linearGradient id="green" x1="0" y1="0" x2="1" y2="1"><stop stop-color="#34d399"/><stop offset="1" stop-color="#14b8a6"/></linearGradient><pattern id="grid" width="48" height="48" patternUnits="userSpaceOnUse"><path d="M48 0H0V48" fill="none" stroke="#34d399" stroke-opacity=".045"/></pattern></defs>
  <rect width="1280" height="640" fill="url(#bg)"/><rect width="1280" height="640" fill="url(#grid)"/><circle cx="1120" cy="70" r="220" fill="#14b8a6" opacity=".07"/>
  <text x="90" y="96" fill="#6ee7b7" font-family="Arial, sans-serif" font-size="22" font-weight="700" letter-spacing="4">CLOUD &amp; PLATFORM ENGINEERING</text><rect x="90" y="122" width="82" height="6" rx="3" fill="url(#green)"/>
  <text x="90" y="235" fill="#f8fafc" font-family="Arial, sans-serif" font-size="55" font-weight="800">KUBERNETES GITOPS</text><text x="90" y="303" fill="#f8fafc" font-family="Arial, sans-serif" font-size="55" font-weight="800">DELIVERY</text>
  <text x="92" y="364" fill="#cbd5e1" font-family="Arial, sans-serif" font-size="27">GitLab CI → OCI → Argo CD → Kubernetes</text>
  <g transform="translate(760 110)" font-family="Arial, sans-serif">
    <circle cx="66" cy="55" r="35" fill="#0f3c39" stroke="#34d399" stroke-width="3"/><path d="M49 55h34M66 38v34" stroke="#a7f3d0" stroke-width="5"/><text x="66" y="109" text-anchor="middle" fill="#6ee7b7" font-size="13" font-weight="800">COMMIT</text>
    <path d="M110 55h72" stroke="#34d399" stroke-width="3"/><path d="M176 48l12 7-12 7" fill="none" stroke="#34d399" stroke-width="3"/>
    <g transform="translate(196 5)"><path d="M0 35l62-35 62 35-62 35z" fill="#34d399"/><path d="M0 35v72l62 35V70z" fill="#047857"/><path d="M124 35v72l-62 35V70z" fill="#0f766e"/><path d="M45 71v28h34V71" fill="none" stroke="#d1fae5" stroke-width="5"/><circle cx="62" cy="66" r="11" fill="#d1fae5"/><text x="62" y="172" text-anchor="middle" fill="#6ee7b7" font-size="13" font-weight="800">IMMUTABLE OCI</text></g>
    <path d="M330 55h72" stroke="#34d399" stroke-width="3"/><path d="M396 48l12 7-12 7" fill="none" stroke="#34d399" stroke-width="3"/>
    <g transform="translate(330 175)"><path d="M70 0a70 70 0 1 1-49 20" fill="none" stroke="#a78bfa" stroke-width="10" stroke-linecap="round"/><path d="M12 10l27 3-18 21z" fill="#a78bfa"/><circle cx="70" cy="70" r="34" fill="#312e81" stroke="#c4b5fd"/><path d="M53 70h34M70 53v34" stroke="#ddd6fe" stroke-width="5"/><text x="70" y="162" text-anchor="middle" fill="#c4b5fd" font-size="13" font-weight="800">ARGO CD RECONCILE</text></g>
    <path d="M400 342v50" stroke="#a78bfa" stroke-width="3"/><path d="M393 386l7 12 7-12" fill="none" stroke="#a78bfa" stroke-width="3"/>
    <path d="M344 402h112l18 28-19 70H345l-19-70z" fill="#0e3041" stroke="#38bdf8" stroke-width="3"/><path d="M366 429l34-17 34 17v39l-34 17-34-17z" fill="#164e63" stroke="#67e8f9"/><path d="M383 448l17-9 17 9v19l-17 9-17-9z" fill="#22d3ee"/><text x="400" y="525" text-anchor="middle" fill="#a5f3fc" font-size="13" font-weight="800">SHIELDED WORKLOAD</text>
  </g>
  <text x="90" y="560" fill="#94a3b8" font-family="Arial, sans-serif" font-size="18">CI PUBLISHES · GIT PROMOTES · ARGO CD DEPLOYS</text><rect x="90" y="582" width="1090" height="2" fill="#334155"/>
</svg>
